<svg width="182" height="44" viewBox="0 0 182 44" fill="none" xmlns="http://www.w3.org/2000/svg">
<path d="M24.2726 16.7879H24.1469C23.3684 16.7879 22.6993 16.2933 22.4043 15.5724L22.3888 15.5362C22.0871 14.8138 22.2047 13.9858 22.7584 13.432L22.8464 13.344C22.9151 13.2754 22.9695 13.1939 23.0067 13.1042C23.0438 13.0145 23.0629 12.9184 23.0629 12.8213C23.0629 12.7242 23.0438 12.6281 23.0067 12.5384C22.9695 12.4487 22.9151 12.3672 22.8464 12.2986C22.7778 12.23 22.6963 12.1755 22.6066 12.1383C22.5169 12.1012 22.4208 12.0821 22.3237 12.0821C22.2266 12.0821 22.1305 12.1012 22.0408 12.1383C21.9511 12.1755 21.8696 12.23 21.801 12.2986L21.713 12.3866C21.1592 12.9403 20.3312 13.0579 19.6088 12.7562L19.5726 12.7407C18.8525 12.4465 18.3578 11.7737 18.3578 10.9951V10.9352C18.3578 10.4643 18.0274 10.1338 17.6185 10.1338C17.2096 10.1338 16.8792 10.4643 16.8792 10.8731V10.8998C16.8792 11.7101 16.3912 12.4405 15.6422 12.7503L15.6378 12.7526C15.2717 12.9041 14.8688 12.9437 14.4802 12.8663C14.0916 12.7889 13.7346 12.598 13.4545 12.3178L13.436 12.2993C13.3674 12.2307 13.2859 12.1762 13.1962 12.1391C13.1065 12.1019 13.0104 12.0828 12.9133 12.0828C12.8162 12.0828 12.7201 12.1019 12.6304 12.1391C12.5407 12.1762 12.4592 12.2307 12.3906 12.2993C12.3219 12.368 12.2675 12.4495 12.2303 12.5392C12.1932 12.6288 12.1741 12.725 12.1741 12.8221C12.1741 12.9191 12.1932 13.0153 12.2303 13.1049C12.2675 13.1946 12.3219 13.2761 12.3906 13.3448L12.4172 13.3714C12.695 13.6494 12.8841 14.0034 12.9608 14.3888C13.0376 14.7743 12.9984 15.1738 12.8482 15.5369L12.8283 15.5842C12.6807 15.9404 12.4308 16.2449 12.1102 16.4591C11.7897 16.6733 11.4128 16.7878 11.0272 16.7879H11.0265C10.5555 16.7879 10.225 17.1184 10.225 17.5272C10.225 17.9361 10.5555 18.2666 10.9644 18.2666H11.0147C11.404 18.2665 11.7846 18.3819 12.1082 18.5983C12.4319 18.8147 12.684 19.1223 12.8327 19.4821L12.8482 19.5183C12.9984 19.8815 13.0376 20.281 12.9608 20.6664C12.8841 21.0518 12.695 21.4059 12.4172 21.6839L12.3906 21.7105C12.2519 21.8491 12.1741 22.0371 12.1741 22.2332C12.1741 22.4292 12.2519 22.6173 12.3906 22.7559C12.5292 22.8945 12.7172 22.9724 12.9133 22.9724C13.1094 22.9724 13.2974 22.8945 13.436 22.7559L13.4626 22.7293C13.7406 22.4514 14.0946 22.2622 14.4801 22.1855C14.8655 22.1088 15.265 22.148 15.6282 22.2982L15.7339 22.3426C16.073 22.4826 16.3629 22.7202 16.5668 23.0252C16.7707 23.3301 16.8794 23.6888 16.8792 24.0557V24.1185C16.8792 24.5902 17.2096 24.9207 17.6185 24.9207C18.0274 24.9207 18.3578 24.5895 18.3578 24.1814V24.0557C18.3578 23.3052 18.8096 22.6287 19.5038 22.3419L19.6901 22.265C20.0293 22.1243 20.4026 22.0875 20.7628 22.1592C21.1229 22.231 21.4536 22.408 21.713 22.6679L21.801 22.7559C21.8696 22.8246 21.9511 22.879 22.0408 22.9162C22.1305 22.9533 22.2266 22.9724 22.3237 22.9724C22.4208 22.9724 22.5169 22.9533 22.6066 22.9162C22.6963 22.879 22.7778 22.8246 22.8464 22.7559C22.9151 22.6873 22.9695 22.6058 23.0067 22.5161C23.0438 22.4264 23.0629 22.3303 23.0629 22.2332C23.0629 22.1361 23.0438 22.04 23.0067 21.9503C22.9695 21.8606 22.9151 21.7791 22.8464 21.7105L22.7584 21.6225C22.2047 21.0687 22.0871 20.2406 22.3888 19.5183L22.4043 19.4821C22.6993 18.7612 23.3721 18.2666 24.1506 18.2666H24.2098C24.6815 18.2666 25.012 17.9361 25.012 17.5272C25.012 17.1184 24.6815 16.7879 24.2726 16.7879V16.7879ZM14.6611 18.2666C14.465 18.2666 14.277 18.1887 14.1383 18.05C13.9997 17.9114 13.9218 17.7233 13.9218 17.5272C13.9218 17.3312 13.9997 17.1431 14.1383 17.0045C14.277 16.8658 14.465 16.7879 14.6611 16.7879C14.8572 16.7879 15.0453 16.8658 15.1839 17.0045C15.3226 17.1431 15.4005 17.3312 15.4005 17.5272C15.4005 17.7233 15.3226 17.9114 15.1839 18.05C15.0453 18.1887 14.8572 18.2666 14.6611 18.2666V18.2666ZM18.3578 20.8543C18.1618 20.8543 17.9737 20.7764 17.835 20.6378C17.6964 20.4991 17.6185 20.311 17.6185 20.115C17.6185 19.9189 17.6964 19.7308 17.835 19.5922C17.9737 19.4535 18.1618 19.3756 18.3578 19.3756C18.5539 19.3756 18.742 19.4535 18.8806 19.5922C19.0193 19.7308 19.0972 19.9189 19.0972 20.115C19.0972 20.311 19.0193 20.4991 18.8806 20.6378C18.742 20.7764 18.5539 20.8543 18.3578 20.8543ZM19.0972 17.5272C18.903 17.5272 18.7106 17.4889 18.5312 17.4145C18.3518 17.3401 18.1888 17.2312 18.0514 17.0938C17.9141 16.9564 17.8052 16.7933 17.7309 16.6139C17.6567 16.4344 17.6184 16.2421 17.6185 16.0478C17.6185 15.8536 17.6569 15.6613 17.7312 15.4818C17.8056 15.3024 17.9146 15.1394 18.052 15.0021C18.1893 14.8648 18.3524 14.7559 18.5319 14.6816C18.7114 14.6073 18.9037 14.5691 19.0979 14.5691C19.4902 14.5692 19.8664 14.7251 20.1437 15.0026C20.421 15.28 20.5767 15.6563 20.5766 16.0486C20.5765 16.4408 20.4206 16.817 20.1432 17.0943C19.8657 17.3716 19.4895 17.5273 19.0972 17.5272V17.5272Z" fill="#254D32"/>
<path d="M17.7438 0C27.5469 0 35.4886 7.94557 35.4886 17.7443C35.4937 20.9724 34.6138 24.1401 32.9445 26.9031L41.5477 35.5064L41.5178 35.5363C42.4361 36.4152 43 37.6628 43 39.073C43.0006 41.7973 40.8302 43.9277 38.1087 43.9271C36.7185 43.9266 35.4753 43.3704 34.5881 42.4655L34.5665 42.4871L25.6899 33.6099C23.2242 34.848 20.5028 35.4914 17.7438 35.4886C7.94003 35.4886 1.81029e-06 27.5442 1.81029e-06 17.7443C1.81029e-06 7.94557 7.94058 0 17.7438 0V0ZM17.6362 28.5112C23.7635 28.5112 28.7269 23.5461 28.7269 17.421C28.7269 11.297 23.7635 6.33084 17.6362 6.33084C11.5089 6.33084 6.54654 11.2965 6.54654 17.421C6.54599 23.5461 11.5089 28.5112 17.6362 28.5112Z" fill="#181D27"/>
<path d="M54.072 16.904C55.096 16.904 56 17.152 56.784 17.648C57.568 18.144 58.176 18.856 58.608 19.784C59.056 20.696 59.28 21.76 59.28 22.976C59.28 24.192 59.056 25.272 58.608 26.216C58.176 27.16 57.56 27.896 56.76 28.424C55.976 28.936 55.08 29.192 54.072 29.192C53.288 29.192 52.568 29.032 51.912 28.712C51.272 28.392 50.784 27.952 50.448 27.392C50.4 27.936 50.184 28.368 49.8 28.688C49.432 28.992 48.944 29.144 48.336 29.144C47.696 29.144 47.184 28.968 46.8 28.616C46.432 28.248 46.248 27.768 46.248 27.176V13.88C46.248 13.32 46.448 12.864 46.848 12.512C47.248 12.144 47.776 11.96 48.432 11.96C49.056 11.96 49.56 12.128 49.944 12.464C50.328 12.8 50.52 13.248 50.52 13.808V18.584C50.872 18.072 51.36 17.664 51.984 17.36C52.624 17.056 53.32 16.904 54.072 16.904ZM52.752 26C53.488 26 54.056 25.744 54.456 25.232C54.856 24.704 55.056 23.952 55.056 22.976C55.056 22.048 54.856 21.336 54.456 20.84C54.072 20.344 53.512 20.096 52.776 20.096C52.024 20.096 51.448 20.352 51.048 20.864C50.648 21.36 50.448 22.08 50.448 23.024C50.448 23.984 50.648 24.72 51.048 25.232C51.448 25.744 52.016 26 52.752 26ZM66.744 16.904C68.568 16.904 69.912 17.344 70.776 18.224C71.656 19.088 72.096 20.408 72.096 22.184V27.2C72.096 27.808 71.912 28.288 71.544 28.64C71.192 28.976 70.696 29.144 70.056 29.144C69.496 29.144 69.032 28.984 68.664 28.664C68.312 28.344 68.12 27.912 68.088 27.368C67.864 27.944 67.488 28.392 66.96 28.712C66.432 29.032 65.8 29.192 65.064 29.192C64.248 29.192 63.512 29.032 62.856 28.712C62.2 28.376 61.68 27.92 61.296 27.344C60.928 26.752 60.744 26.088 60.744 25.352C60.744 24.504 60.96 23.832 61.392 23.336C61.84 22.824 62.544 22.456 63.504 22.232C64.464 22.008 65.76 21.896 67.392 21.896H68.04V21.608C68.04 21.048 67.912 20.648 67.656 20.408C67.4 20.152 66.968 20.024 66.36 20.024C65.704 20.024 64.744 20.248 63.48 20.696C63.112 20.824 62.8 20.888 62.544 20.888C62.144 20.888 61.824 20.744 61.584 20.456C61.344 20.168 61.224 19.792 61.224 19.328C61.224 18.976 61.296 18.688 61.44 18.464C61.584 18.24 61.816 18.04 62.136 17.864C62.696 17.576 63.4 17.344 64.248 17.168C65.096 16.992 65.928 16.904 66.744 16.904ZM66.072 26.336C66.648 26.336 67.12 26.136 67.488 25.736C67.856 25.32 68.04 24.792 68.04 24.152V23.864H67.656C66.632 23.864 65.904 23.96 65.472 24.152C65.04 24.328 64.824 24.632 64.824 25.064C64.824 25.432 64.936 25.736 65.16 25.976C65.4 26.216 65.704 26.336 66.072 26.336ZM80.1782 29.192C78.2582 29.192 76.7382 28.648 75.6182 27.56C74.4982 26.472 73.9382 24.992 73.9382 23.12C73.9382 21.888 74.2102 20.8 74.7542 19.856C75.2982 18.912 76.0582 18.184 77.0342 17.672C78.0262 17.16 79.1542 16.904 80.4182 16.904C81.0902 16.904 81.7622 16.992 82.4342 17.168C83.1062 17.344 83.6982 17.592 84.2102 17.912C84.7062 18.216 84.9542 18.68 84.9542 19.304C84.9542 19.8 84.8342 20.208 84.5942 20.528C84.3702 20.832 84.0742 20.984 83.7062 20.984C83.4662 20.984 83.2342 20.952 83.0102 20.888C82.7862 20.808 82.5382 20.696 82.2662 20.552C81.9462 20.408 81.6742 20.304 81.4502 20.24C81.2262 20.16 80.9782 20.12 80.7062 20.12C79.1222 20.12 78.3302 21.088 78.3302 23.024C78.3302 23.984 78.5302 24.72 78.9302 25.232C79.3462 25.728 79.9382 25.976 80.7062 25.976C80.9782 25.976 81.2262 25.944 81.4502 25.88C81.6902 25.8 81.9542 25.688 82.2422 25.544C82.5622 25.4 82.8182 25.296 83.0102 25.232C83.2182 25.152 83.4422 25.112 83.6822 25.112C84.0502 25.112 84.3462 25.272 84.5702 25.592C84.8102 25.896 84.9302 26.296 84.9302 26.792C84.9302 27.096 84.8662 27.376 84.7382 27.632C84.6102 27.872 84.4342 28.056 84.2102 28.184C83.1062 28.856 81.7622 29.192 80.1782 29.192ZM98.2742 25.688C98.6902 26.088 98.8982 26.552 98.8982 27.08C98.8982 27.608 98.7062 28.08 98.3222 28.496C97.9542 28.912 97.5062 29.12 96.9782 29.12C96.5302 29.12 96.0822 28.92 95.6342 28.52L90.7622 23.888V27.128C90.7622 27.784 90.5542 28.28 90.1382 28.616C89.7382 28.952 89.2342 29.12 88.6262 29.12C88.0182 29.12 87.5062 28.952 87.0902 28.616C86.6902 28.28 86.4902 27.784 86.4902 27.128V13.952C86.4902 13.296 86.6902 12.8 87.0902 12.464C87.5062 12.128 88.0182 11.96 88.6262 11.96C89.2342 11.96 89.7382 12.128 90.1382 12.464C90.5542 12.8 90.7622 13.296 90.7622 13.952V22.088L95.2022 17.576C95.6022 17.16 96.0662 16.952 96.5942 16.952C97.1062 16.952 97.5542 17.152 97.9382 17.552C98.3382 17.936 98.5382 18.376 98.5382 18.872C98.5382 19.368 98.3302 19.824 97.9142 20.24L95.2982 22.832L98.2742 25.688ZM107.42 26.096C108.492 26.16 109.028 26.64 109.028 27.536C109.028 28.096 108.812 28.512 108.38 28.784C107.948 29.056 107.332 29.168 106.532 29.12L105.86 29.072C104.42 28.96 103.324 28.528 102.572 27.776C101.836 27.008 101.468 25.944 101.468 24.584V20.336H100.771C99.4915 20.336 98.8515 19.808 98.8515 18.752C98.8515 17.712 99.4915 17.192 100.771 17.192H101.468V15.632C101.468 15.024 101.66 14.544 102.044 14.192C102.428 13.824 102.948 13.64 103.604 13.64C104.26 13.64 104.78 13.824 105.164 14.192C105.548 14.544 105.74 15.024 105.74 15.632V17.192H107.06C108.34 17.192 108.98 17.712 108.98 18.752C108.98 19.808 108.34 20.336 107.06 20.336H105.74V24.944C105.74 25.248 105.828 25.504 106.004 25.712C106.196 25.92 106.436 26.032 106.724 26.048L107.42 26.096ZM117.65 16.952C118.194 16.904 118.626 17.032 118.946 17.336C119.266 17.624 119.426 18.056 119.426 18.632C119.426 19.272 119.274 19.736 118.97 20.024C118.682 20.312 118.154 20.496 117.386 20.576L116.666 20.648C115.866 20.744 115.29 21 114.938 21.416C114.602 21.816 114.434 22.368 114.434 23.072V27.176C114.434 27.832 114.226 28.328 113.81 28.664C113.41 28.984 112.906 29.144 112.298 29.144C111.69 29.144 111.178 28.984 110.762 28.664C110.362 28.328 110.162 27.832 110.162 27.176V18.872C110.162 18.264 110.362 17.792 110.762 17.456C111.178 17.12 111.674 16.952 112.25 16.952C112.842 16.952 113.314 17.112 113.666 17.432C114.034 17.752 114.218 18.2 114.218 18.776V19.232C114.474 18.528 114.89 17.984 115.466 17.6C116.058 17.216 116.674 17.008 117.314 16.976L117.65 16.952ZM125.736 16.904C127.56 16.904 128.904 17.344 129.768 18.224C130.648 19.088 131.088 20.408 131.088 22.184V27.2C131.088 27.808 130.904 28.288 130.536 28.64C130.184 28.976 129.688 29.144 129.048 29.144C128.488 29.144 128.024 28.984 127.656 28.664C127.304 28.344 127.112 27.912 127.08 27.368C126.856 27.944 126.48 28.392 125.952 28.712C125.424 29.032 124.792 29.192 124.056 29.192C123.24 29.192 122.504 29.032 121.848 28.712C121.192 28.376 120.672 27.92 120.288 27.344C119.92 26.752 119.736 26.088 119.736 25.352C119.736 24.504 119.952 23.832 120.384 23.336C120.832 22.824 121.536 22.456 122.496 22.232C123.456 22.008 124.752 21.896 126.384 21.896H127.032V21.608C127.032 21.048 126.904 20.648 126.648 20.408C126.392 20.152 125.96 20.024 125.352 20.024C124.696 20.024 123.736 20.248 122.472 20.696C122.104 20.824 121.792 20.888 121.536 20.888C121.136 20.888 120.816 20.744 120.576 20.456C120.336 20.168 120.216 19.792 120.216 19.328C120.216 18.976 120.288 18.688 120.432 18.464C120.576 18.24 120.808 18.04 121.128 17.864C121.688 17.576 122.392 17.344 123.24 17.168C124.088 16.992 124.92 16.904 125.736 16.904ZM125.064 26.336C125.64 26.336 126.112 26.136 126.48 25.736C126.848 25.32 127.032 24.792 127.032 24.152V23.864H126.648C125.624 23.864 124.896 23.96 124.464 24.152C124.032 24.328 123.816 24.632 123.816 25.064C123.816 25.432 123.928 25.736 124.152 25.976C124.392 26.216 124.696 26.336 125.064 26.336ZM139.17 29.192C137.25 29.192 135.73 28.648 134.61 27.56C133.49 26.472 132.93 24.992 132.93 23.12C132.93 21.888 133.202 20.8 133.746 19.856C134.29 18.912 135.05 18.184 136.026 17.672C137.018 17.16 138.146 16.904 139.41 16.904C140.082 16.904 140.754 16.992 141.426 17.168C142.098 17.344 142.69 17.592 143.202 17.912C143.698 18.216 143.946 18.68 143.946 19.304C143.946 19.8 143.826 20.208 143.586 20.528C143.362 20.832 143.066 20.984 142.698 20.984C142.458 20.984 142.226 20.952 142.002 20.888C141.778 20.808 141.53 20.696 141.258 20.552C140.938 20.408 140.666 20.304 140.442 20.24C140.218 20.16 139.97 20.12 139.698 20.12C138.114 20.12 137.322 21.088 137.322 23.024C137.322 23.984 137.522 24.72 137.922 25.232C138.338 25.728 138.93 25.976 139.698 25.976C139.97 25.976 140.218 25.944 140.442 25.88C140.682 25.8 140.946 25.688 141.234 25.544C141.554 25.4 141.81 25.296 142.002 25.232C142.21 25.152 142.434 25.112 142.674 25.112C143.042 25.112 143.338 25.272 143.562 25.592C143.802 25.896 143.922 26.296 143.922 26.792C143.922 27.096 143.858 27.376 143.73 27.632C143.602 27.872 143.426 28.056 143.202 28.184C142.098 28.856 140.754 29.192 139.17 29.192ZM157.266 25.688C157.682 26.088 157.89 26.552 157.89 27.08C157.89 27.608 157.698 28.08 157.314 28.496C156.946 28.912 156.498 29.12 155.97 29.12C155.522 29.12 155.074 28.92 154.626 28.52L149.754 23.888V27.128C149.754 27.784 149.546 28.28 149.13 28.616C148.73 28.952 148.226 29.12 147.618 29.12C147.01 29.12 146.498 28.952 146.082 28.616C145.682 28.28 145.482 27.784 145.482 27.128V13.952C145.482 13.296 145.682 12.8 146.082 12.464C146.498 12.128 147.01 11.96 147.618 11.96C148.226 11.96 148.73 12.128 149.13 12.464C149.546 12.8 149.754 13.296 149.754 13.952V22.088L154.194 17.576C154.594 17.16 155.058 16.952 155.586 16.952C156.098 16.952 156.546 17.152 156.93 17.552C157.33 17.936 157.53 18.376 157.53 18.872C157.53 19.368 157.322 19.824 156.906 20.24L154.29 22.832L157.266 25.688ZM168.911 25.208C169.279 25.208 169.575 25.352 169.799 25.64C170.039 25.928 170.159 26.304 170.159 26.768C170.159 27.408 169.847 27.896 169.223 28.232C168.679 28.504 168.031 28.736 167.279 28.928C166.543 29.104 165.863 29.192 165.239 29.192C163.927 29.192 162.783 28.944 161.807 28.448C160.831 27.952 160.079 27.24 159.551 26.312C159.023 25.384 158.759 24.296 158.759 23.048C158.759 21.864 159.007 20.808 159.503 19.88C160.015 18.936 160.719 18.208 161.615 17.696C162.527 17.168 163.551 16.904 164.687 16.904C165.791 16.904 166.759 17.144 167.591 17.624C168.423 18.104 169.063 18.784 169.511 19.664C169.975 20.544 170.207 21.576 170.207 22.76C170.207 23.128 170.119 23.416 169.943 23.624C169.783 23.816 169.543 23.912 169.223 23.912H162.887C162.999 24.68 163.247 25.232 163.631 25.568C164.015 25.904 164.583 26.072 165.335 26.072C165.735 26.072 166.103 26.032 166.439 25.952C166.775 25.856 167.151 25.728 167.567 25.568C167.807 25.472 168.039 25.392 168.263 25.328C168.503 25.248 168.719 25.208 168.911 25.208ZM164.807 19.784C164.247 19.784 163.799 19.968 163.463 20.336C163.127 20.688 162.927 21.208 162.863 21.896H166.631C166.535 20.488 165.927 19.784 164.807 19.784ZM179.642 16.952C180.186 16.904 180.618 17.032 180.938 17.336C181.258 17.624 181.418 18.056 181.418 18.632C181.418 19.272 181.266 19.736 180.962 20.024C180.674 20.312 180.146 20.496 179.378 20.576L178.658 20.648C177.858 20.744 177.282 21 176.93 21.416C176.594 21.816 176.426 22.368 176.426 23.072V27.176C176.426 27.832 176.218 28.328 175.802 28.664C175.402 28.984 174.898 29.144 174.29 29.144C173.682 29.144 173.17 28.984 172.754 28.664C172.354 28.328 172.154 27.832 172.154 27.176V18.872C172.154 18.264 172.354 17.792 172.754 17.456C173.17 17.12 173.666 16.952 174.242 16.952C174.834 16.952 175.306 17.112 175.658 17.432C176.026 17.752 176.21 18.2 176.21 18.776V19.232C176.466 18.528 176.882 17.984 177.458 17.6C178.05 17.216 178.666 17.008 179.306 16.976L179.642 16.952Z" fill="#254D32"/>
</svg>
