<svg width="43" height="44" viewBox="0 0 43 44" fill="none" xmlns="http://www.w3.org/2000/svg">
<path d="M24.2726 16.7879H24.1469C23.3684 16.7879 22.6993 16.2933 22.4043 15.5724L22.3888 15.5362C22.0871 14.8138 22.2047 13.9858 22.7584 13.432L22.8464 13.344C22.9151 13.2754 22.9695 13.1939 23.0067 13.1042C23.0438 13.0145 23.0629 12.9184 23.0629 12.8213C23.0629 12.7242 23.0438 12.6281 23.0067 12.5384C22.9695 12.4487 22.9151 12.3672 22.8464 12.2986C22.7778 12.23 22.6963 12.1755 22.6066 12.1383C22.5169 12.1012 22.4208 12.0821 22.3237 12.0821C22.2266 12.0821 22.1305 12.1012 22.0408 12.1383C21.9511 12.1755 21.8696 12.23 21.801 12.2986L21.713 12.3866C21.1592 12.9403 20.3312 13.0579 19.6088 12.7562L19.5726 12.7407C18.8525 12.4465 18.3578 11.7737 18.3578 10.9951V10.9352C18.3578 10.4643 18.0274 10.1338 17.6185 10.1338C17.2096 10.1338 16.8792 10.4643 16.8792 10.8731V10.8998C16.8792 11.7101 16.3912 12.4405 15.6422 12.7503L15.6378 12.7526C15.2717 12.9041 14.8688 12.9437 14.4802 12.8663C14.0916 12.7889 13.7346 12.598 13.4545 12.3178L13.436 12.2993C13.3674 12.2307 13.2859 12.1762 13.1962 12.1391C13.1065 12.1019 13.0104 12.0828 12.9133 12.0828C12.8162 12.0828 12.7201 12.1019 12.6304 12.1391C12.5407 12.1762 12.4592 12.2307 12.3906 12.2993C12.3219 12.368 12.2675 12.4495 12.2303 12.5392C12.1932 12.6288 12.1741 12.725 12.1741 12.8221C12.1741 12.9191 12.1932 13.0153 12.2303 13.1049C12.2675 13.1946 12.3219 13.2761 12.3906 13.3448L12.4172 13.3714C12.695 13.6494 12.8841 14.0034 12.9608 14.3888C13.0376 14.7743 12.9984 15.1738 12.8482 15.5369L12.8283 15.5842C12.6807 15.9404 12.4308 16.2449 12.1102 16.4591C11.7897 16.6733 11.4128 16.7878 11.0272 16.7879H11.0265C10.5555 16.7879 10.225 17.1184 10.225 17.5272C10.225 17.9361 10.5555 18.2666 10.9644 18.2666H11.0147C11.404 18.2665 11.7846 18.3819 12.1082 18.5983C12.4319 18.8147 12.684 19.1223 12.8327 19.4821L12.8482 19.5183C12.9984 19.8815 13.0376 20.281 12.9608 20.6664C12.8841 21.0518 12.695 21.4059 12.4172 21.6839L12.3906 21.7105C12.2519 21.8491 12.1741 22.0371 12.1741 22.2332C12.1741 22.4292 12.2519 22.6173 12.3906 22.7559C12.5292 22.8945 12.7172 22.9724 12.9133 22.9724C13.1094 22.9724 13.2974 22.8945 13.436 22.7559L13.4626 22.7293C13.7406 22.4514 14.0946 22.2622 14.4801 22.1855C14.8655 22.1088 15.265 22.148 15.6282 22.2982L15.7339 22.3426C16.073 22.4826 16.3629 22.7202 16.5668 23.0252C16.7707 23.3301 16.8794 23.6888 16.8792 24.0557V24.1185C16.8792 24.5902 17.2096 24.9207 17.6185 24.9207C18.0274 24.9207 18.3578 24.5895 18.3578 24.1814V24.0557C18.3578 23.3052 18.8096 22.6287 19.5038 22.3419L19.6901 22.265C20.0293 22.1243 20.4026 22.0875 20.7628 22.1592C21.1229 22.231 21.4536 22.408 21.713 22.6679L21.801 22.7559C21.8696 22.8246 21.9511 22.879 22.0408 22.9162C22.1305 22.9533 22.2266 22.9724 22.3237 22.9724C22.4208 22.9724 22.5169 22.9533 22.6066 22.9162C22.6963 22.879 22.7778 22.8246 22.8464 22.7559C22.9151 22.6873 22.9695 22.6058 23.0067 22.5161C23.0438 22.4264 23.0629 22.3303 23.0629 22.2332C23.0629 22.1361 23.0438 22.04 23.0067 21.9503C22.9695 21.8606 22.9151 21.7791 22.8464 21.7105L22.7584 21.6225C22.2047 21.0687 22.0871 20.2406 22.3888 19.5183L22.4043 19.4821C22.6993 18.7612 23.3721 18.2666 24.1506 18.2666H24.2098C24.6815 18.2666 25.012 17.9361 25.012 17.5272C25.012 17.1184 24.6815 16.7879 24.2726 16.7879V16.7879ZM14.6611 18.2666C14.465 18.2666 14.277 18.1887 14.1383 18.05C13.9997 17.9114 13.9218 17.7233 13.9218 17.5272C13.9218 17.3312 13.9997 17.1431 14.1383 17.0045C14.277 16.8658 14.465 16.7879 14.6611 16.7879C14.8572 16.7879 15.0453 16.8658 15.1839 17.0045C15.3226 17.1431 15.4005 17.3312 15.4005 17.5272C15.4005 17.7233 15.3226 17.9114 15.1839 18.05C15.0453 18.1887 14.8572 18.2666 14.6611 18.2666V18.2666ZM18.3578 20.8543C18.1618 20.8543 17.9737 20.7764 17.835 20.6378C17.6964 20.4991 17.6185 20.311 17.6185 20.115C17.6185 19.9189 17.6964 19.7308 17.835 19.5922C17.9737 19.4535 18.1618 19.3756 18.3578 19.3756C18.5539 19.3756 18.742 19.4535 18.8806 19.5922C19.0193 19.7308 19.0972 19.9189 19.0972 20.115C19.0972 20.311 19.0193 20.4991 18.8806 20.6378C18.742 20.7764 18.5539 20.8543 18.3578 20.8543ZM19.0972 17.5272C18.903 17.5272 18.7106 17.4889 18.5312 17.4145C18.3518 17.3401 18.1888 17.2312 18.0514 17.0938C17.9141 16.9564 17.8052 16.7933 17.7309 16.6139C17.6567 16.4344 17.6184 16.2421 17.6185 16.0478C17.6185 15.8536 17.6569 15.6613 17.7312 15.4818C17.8056 15.3024 17.9146 15.1394 18.052 15.0021C18.1893 14.8648 18.3524 14.7559 18.5319 14.6816C18.7114 14.6073 18.9037 14.5691 19.0979 14.5691C19.4902 14.5692 19.8664 14.7251 20.1437 15.0026C20.421 15.28 20.5767 15.6563 20.5766 16.0486C20.5765 16.4408 20.4206 16.817 20.1432 17.0943C19.8657 17.3716 19.4895 17.5273 19.0972 17.5272V17.5272Z" fill="#254D32"/>
<path d="M17.7438 0C27.5469 0 35.4886 7.94557 35.4886 17.7443C35.4937 20.9724 34.6138 24.1401 32.9445 26.9031L41.5477 35.5064L41.5178 35.5363C42.4361 36.4152 43 37.6628 43 39.073C43.0006 41.7973 40.8302 43.9277 38.1087 43.9271C36.7185 43.9266 35.4753 43.3704 34.5881 42.4655L34.5665 42.4871L25.6899 33.6099C23.2242 34.848 20.5028 35.4914 17.7438 35.4886C7.94003 35.4886 1.81029e-06 27.5442 1.81029e-06 17.7443C1.81029e-06 7.94557 7.94058 0 17.7438 0V0ZM17.6362 28.5112C23.7635 28.5112 28.7269 23.5461 28.7269 17.421C28.7269 11.297 23.7635 6.33084 17.6362 6.33084C11.5089 6.33084 6.54654 11.2965 6.54654 17.421C6.54599 23.5461 11.5089 28.5112 17.6362 28.5112Z" fill="#181D27"/>
</svg>
